<svg id="Warstwa_1" data-name="Warstwa 1" xmlns="http://www.w3.org/2000/svg" viewBox="0 0 629.25 382.19"><defs><style>.cls-1{fill:#ffffff;}</style></defs><title>ANdent logoa</title><path class="cls-1" d="M345.1,397a14.28,14.28,0,0,0-5.1-2.5,38,38,0,0,0-10.6-1.3h-92c-1.3,0-1.8.2-1.7,1.6q.15,3.3,0,6.6c-.1,1.5.3,1.9,1.9,1.9h87a9.65,9.65,0,0,1,1.7,0,2.32,2.32,0,0,1,2.3,2.5v28.7a2.07,2.07,0,0,1-2,2.3,16.35,16.35,0,0,1-2.2.2H256.7c-1.4,0-1.7-.4-1.7-1.7.1-6.9,0-13.8.1-20.6.1-1.3-.3-1.6-1.6-1.6-5.4.1-10.7.1-16.1,0-1.3,0-1.6.3-1.6,1.6.1,10.2.1,20.5,0,30.7,0,1.4.5,1.5,1.7,1.5h30.4c21.1,0,42.1,0,63.2-.1,4.2-.1,8.3-.6,12.1-2.5,3-1.6,4.8-3.9,4.8-7.4,0-11.3,0-22.5-.1-33.7A7.45,7.45,0,0,0,345.1,397Zm132.2,16H389.4a8.53,8.53,0,0,0-1.6,0c-1,.2-1.3-.2-1.3-1.2v-5c0-3.3.4-3.7,3.7-3.7h72.5c4.9,0,9.9-.1,14.8,0,1.4,0,2-.3,1.9-1.8-.1-2.1-.1-4.3,0-6.4.1-1.5-.4-1.9-1.9-1.9H385.3a34.33,34.33,0,0,0-10.6,1.4c-4.4,1.4-7.7,3.8-7.6,9.9.1,10.5,0,21.1,0,31.6,0,4.6,1.7,7.1,6,8.9s9,2,13.6,2h91.5c1,.1,1.2-.3,1.2-1.2v-5.9c0-2.9,0-2.9-2.9-2.9H391.7c-1.1,0-2.2-.1-3.3-.2-1.4-.1-2-.9-2-2.3v-8.8c0-2.5,0-2.5,2.6-2.5h51.6c12.4,0,24.7-.1,37,0,1.3,0,1.8-.3,1.7-1.7a24.94,24.94,0,0,1,.2-6.1C479.7,413.3,479,413,477.3,413Zm131.8-20H593.4c-2.2,0-2.2,0-2.2,2.3v41a2,2,0,0,1-1.4-.6q-21.9-15.3-44-30.4c-3.9-2.7-7.8-5.4-11.7-8-6.3-4.2-13.4-4.6-20.6-4.2a25.72,25.72,0,0,0-10.2,2.3,8.19,8.19,0,0,0-5,7.8v42.1c0,1.2.3,1.5,1.5,1.5,5.4-.1,10.7-.1,16.1,0,1.4,0,1.8-.4,1.8-1.8V403.5a2.36,2.36,0,0,1,1.5.7c16.7,11.5,33.4,22.9,50,34.5,5.9,4.1,11.9,7.8,19.4,8,5.5.1,10.9,0,16.1-2,3.5-1.4,5.8-3.9,5.8-7.9.1-14.1,0-28.2.1-42.3C610.6,393.3,610.2,393,609.1,393Zm126.2,1.6c.1-1.5-.5-1.7-1.8-1.7H624.8c-1.3,0-1.8.4-1.7,1.7a48.46,48.46,0,0,1,0,6.6c-.2,1.7.5,1.9,1.9,1.9,14.3-.1,28.5,0,42.7-.1,1.6,0,2,.4,2,2-.1,13.4-.1,26.8-.1,40.2,0,1.3.3,1.6,1.6,1.6,5.2-.1,10.5-.1,15.7,0,1.5.1,2-.2,2-1.9V405.4c0-2.7-.2-2.3,2.3-2.3,14.1,0,28.2-.1,42.3,0,1.5,0,1.9-.4,1.8-1.8C735.2,399.1,735.2,396.9,735.3,394.6Zm-534-229.4c-.3-.1-.7-.3-.9,0s-.1.6.1,1a12.09,12.09,0,0,0,4,5.5c3.7,2.8,7.9,4,12.4,4.8,6.5,1.2,13,.6,19.6-.3a135.63,135.63,0,0,0,42.9-13.4c7.9-4,15.8-8.3,24.3-10.9s17.2-4.5,26.2-4.4c5.9.1,10.9,1.8,14.6,6.7,1.5,2,3.1,4,4.7,5.9,2.6,3.3,4.9,6.8,8.3,9.4,2.2,1.7,4.2,1.5,6.1-.5a13.14,13.14,0,0,0,2.6-4.4c2.2-5.9,2.6-12,2.8-18.8a36.81,36.81,0,0,1-.3-5.1c.1-6.2-3.2-10.2-8.1-13.3-5.7-3.6-12-5.2-18.5-5.9a70.67,70.67,0,0,0-27.8,2.9A108.41,108.41,0,0,0,280,142c-11.9,8.8-24.4,16.2-38.5,20.8C228.2,167,214.9,168.8,201.3,165.2ZM170.6,344.4c5.5-15.4,10.9-30.9,13.6-47.1a98.46,98.46,0,0,0,.4-32.5A83.3,83.3,0,0,0,170.3,230a225.79,225.79,0,0,1-14.4-22.9c-5.7-10.5-10.3-21.4-11.8-33.4-1.8-14.3,4.1-26.4,16.7-33.5,11.6-6.5,24.3-8.4,37.3-9.3a159.12,159.12,0,0,1,22.9,0c7.6.4,15.2,1.2,22.9,2.1-.1-.1-.3-.2-.4-.3-16.4-10.9-34-19.1-53.4-23.4a92.94,92.94,0,0,0-30.2-1.9A69.61,69.61,0,0,0,121,124.3c-10.5,9-15.4,20.4-14.3,34.2.7,8.8,3.4,17.1,6.8,25.2,5.3,12.9,12.1,25.2,18.4,37.7,5.6,11.1,11,22.4,15,34.2,5.1,15.2,7,30.6,3.6,46.5-4.3,20.4-8.8,40.7-12.3,61.3a319.86,319.86,0,0,0-4,33.9,150.11,150.11,0,0,0,2.5,39c3.8,18.2,12.2,33.8,26.1,46.4a56.71,56.71,0,0,0,6.6,5.3.76.76,0,0,0,.1-.4l-.3-1.2c-6.6-21.3-11.6-42.9-12.9-65.3a150.71,150.71,0,0,1,3.1-41.3C161.9,367.7,166.4,356.1,170.6,344.4Zm72-31.9c2.6-5.5,4.6-11.1,4.5-17.3-.1-9.1-7.6-13.5-15.7-9.2a27.65,27.65,0,0,0-6.7,5.1c-5.6,5.7-9.6,12.4-13.3,19.4-6.1,11.7-10.6,24.1-14.8,36.5a248.28,248.28,0,0,0-10.4,46.7c-1.1,9-1.9,18-2.5,27-.9,13.4-1.1,26.9-1,40.4.1,6.3.4,12.5.6,18.8.1,2.9.2,5.8.4,9.2a4.36,4.36,0,0,0,.6-2.4c.2-.9.4-1.9.6-2.8,2.7-14.7,5.7-29.4,9-44,2.8-12.5,5.9-24.9,9.2-37.3A429.76,429.76,0,0,1,219,354.5c4.2-10.2,9-20,15.6-28.9A74.15,74.15,0,0,0,242.6,312.5ZM300.1,380c6-10.3,12-20.5,18-30.8a2.5,2.5,0,0,1,2.5-1.5H440.5a2.84,2.84,0,0,1,2.8,1.7c5.9,10.2,11.9,20.4,17.8,30.6a2.43,2.43,0,0,0,2.4,1.3h66.3c-2.8-5.1-5.4-9.9-8-14.8-10.6-19.9-21.4-39.9-32.1-59.8-11.7-21.7-23.4-43.3-35-65L422,180.8a2,2,0,0,0-2-1.2H343.7a2.1,2.1,0,0,0-2,1.2c-2.8,5.2-5.6,10.4-8.5,15.6l-33,60c-12.3,22.4-24.5,44.8-36.8,67.2-10.3,18.7-20.5,37.4-30.8,56.1-.9,1.6-.9,1.6,1,1.6H298A2.08,2.08,0,0,0,300.1,380Zm43.4-82.7c5.6-10.3,11.1-20.6,16.7-31,6.8-12.5,13.5-25.1,20.3-37.6a3.91,3.91,0,0,1,.4-.5c2.2,3.9,4.2,7.7,6.3,11.4,7.9,14.4,15.9,28.8,23.8,43.2,2.7,4.9,5.4,9.9,8.2,14.8.7,1.3.4,1.6-1,1.6H344.5C342.5,299.2,342.5,299.2,343.5,297.3ZM735.7,181.5c0-1.5-.4-1.9-1.9-1.9-18.2.1-36.4,0-54.6,0-1.7,0-3.8-.6-4.9.3s-.4,3.2-.4,4.9V325c0,.6.3,1.3-.4,1.8-2.4-2.9-4.8-5.8-7.1-8.8q-28-34.35-56.2-68.8l-55.8-68.4a2.93,2.93,0,0,0-2.6-1.3H463.7c-1.6,0-2,.3-2,2q.15,26.25,0,52.5a13.35,13.35,0,0,0,1.9,7.5c1.6,2.5,2.9,5.2,4.3,7.9q24,44.55,48.1,89c2.4,4.5,4.9,9.1,7.3,13.6.1,0,.2-.1.3-.1v-117c.6.7,1,1,1.2,1.3l31.9,38.5q23.55,28.5,47.2,57c13.4,16.2,26.8,32.3,40.2,48.5a2.71,2.71,0,0,0,2.5,1.1H734c1.4,0,1.8-.3,1.8-1.8Q735.65,280.5,735.7,181.5Z" transform="translate(-106.55 -106.91)"/></svg>